<svg xmlns="http://www.w3.org/2000/svg" width="58.289" height="40.411" viewBox="0 0 58.289 40.411"><defs><style>.a{fill:#ffd333;}</style></defs><g transform="translate(36.676 25.716)"><g transform="translate(0 0)"><path class="a" d="M329.5,304.4a7.347,7.347,0,1,0,7.347,7.347A7.356,7.356,0,0,0,329.5,304.4Zm0,11.021a3.674,3.674,0,1,1,3.674-3.674A3.677,3.677,0,0,1,329.5,315.424Z" transform="translate(-322.151 -304.403)"/></g></g><g transform="translate(11.572 25.716)"><g transform="translate(0 0)"><path class="a" d="M108.994,304.4a7.347,7.347,0,1,0,7.347,7.347A7.356,7.356,0,0,0,108.994,304.4Zm0,11.021a3.674,3.674,0,1,1,3.674-3.674A3.677,3.677,0,0,1,108.994,315.424Z" transform="translate(-101.647 -304.403)"/></g></g><g transform="translate(37.655 3.674)"><path class="a" d="M342.072,111.8a1.838,1.838,0,0,0-1.642-1.012h-9.674v3.674H339.3l5,9.948,3.283-1.651Z" transform="translate(-330.756 -110.79)"/></g><g transform="translate(24.614 31.288)"><rect class="a" width="13.899" height="3.674"/></g><g transform="translate(5.204 31.288)"><path class="a" d="M53.919,353.345H47.552a1.837,1.837,0,0,0,0,3.674H53.92a1.837,1.837,0,1,0,0-3.674Z" transform="translate(-45.715 -353.345)"/></g><g transform="translate(5.204 0)"><path class="a" d="M98.414,98.579,94.8,93.926a1.834,1.834,0,0,0-1.451-.71H80V80.358a1.837,1.837,0,0,0-1.837-1.837H47.552a1.837,1.837,0,1,0,0,3.674H76.329V95.053a1.837,1.837,0,0,0,1.837,1.837H92.451l2.675,3.446v9.473H90.044a1.837,1.837,0,0,0,0,3.674h6.919a1.837,1.837,0,0,0,1.837-1.837V99.706A1.84,1.84,0,0,0,98.414,98.579Z" transform="translate(-45.715 -78.521)"/></g><g transform="translate(3 21.981)"><g transform="translate(0 0)"><path class="a" d="M36.639,271.6H28.19a1.837,1.837,0,0,0,0,3.674h8.449a1.837,1.837,0,0,0,0-3.674Z" transform="translate(-26.353 -271.597)"/></g></g><g transform="translate(0 14.756)"><path class="a" d="M17.511,208.134H1.837a1.837,1.837,0,0,0,0,3.674H17.511a1.837,1.837,0,0,0,0-3.674Z" transform="translate(0 -208.134)"/></g><g transform="translate(3 7.531)"><g transform="translate(0 0)"><path class="a" d="M43.864,144.672H28.19a1.837,1.837,0,0,0,0,3.674H43.864a1.837,1.837,0,0,0,0-3.674Z" transform="translate(-26.353 -144.672)"/></g></g></svg>