<svg xmlns="http://www.w3.org/2000/svg" width="47.408" height="50.872" viewBox="0 0 47.408 50.872"><defs><style>.a,.b{fill:#ffd333;}.b{stroke:#ffd333;}</style></defs><g transform="translate(0.5 0.5)"><path class="a" d="M211.527,289h-9.355a.731.731,0,0,0,0,1.461h9.355a.731.731,0,0,0,0-1.461Z" transform="translate(-183.551 -260.85)"/><path class="a" d="M193.671,180.664v-2.072h1.322a.731.731,0,1,0,0-1.461h-1.322v-1.237h1.5a.731.731,0,1,0,0-1.461h-2.229a.73.73,0,0,0-.731.731v5.5a.731.731,0,1,0,1.461,0Z" transform="translate(-175.219 -157.442)"/><path class="a" d="M253.459,175.9a.731.731,0,1,0,0-1.461H251.23a.73.73,0,0,0-.731.731v5.5a.731.731,0,1,0,1.461,0v-2.072h1.322a.731.731,0,0,0,0-1.461H251.96V175.9Z" transform="translate(-227.831 -157.443)"/><path class="a" d="M307.634,175.411a.731.731,0,1,0,0-1.461h-2.313a.73.73,0,0,0-.731.731v5.49a.73.73,0,0,0,.731.731h2.313a.731.731,0,0,0,0-1.461h-1.583v-1.284h1.412a.731.731,0,1,0,0-1.461h-1.412v-1.284Z" transform="translate(-276.653 -157.006)"/><path class="a" d="M370.307,175.861a2.215,2.215,0,0,0-2.252-2.17h-1.474a.73.73,0,0,0-.731.731v5.541a.731.731,0,1,0,1.461,0v-1.468l1.717,1.95a.731.731,0,0,0,1.1-.965l-1.369-1.556A2.184,2.184,0,0,0,370.307,175.861Zm-2.252.709-.736,0c0-.268,0-1.141,0-1.421h.74a.714.714,0,1,1,0,1.419Z" transform="translate(-331.946 -156.772)"/><path class="a" d="M103.9,174.225a3.5,3.5,0,1,0,3.5,3.5A3.5,3.5,0,0,0,103.9,174.225Zm0,5.541a2.04,2.04,0,1,1,2.04-2.04A2.042,2.042,0,0,1,103.9,179.766Z" transform="translate(-92.351 -157.254)"/><path class="b" d="M63.783,22.975l-3.5-3.54V3.478A3.482,3.482,0,0,0,56.8,0H25.354a3.482,3.482,0,0,0-3.478,3.478V19.17L18.16,23c-.015.015-.028.031-.041.047a1.252,1.252,0,0,0-.338.862V46.328a3.548,3.548,0,0,0,3.544,3.544h39.32a3.548,3.548,0,0,0,3.544-3.544V23.9a1.245,1.245,0,0,0-.407-.928Zm-1.949.107-1.552.9V21.512ZM21.876,24.094l-1.75-1.019,1.75-1.806ZM62.728,46.328a2.085,2.085,0,0,1-2.083,2.083H21.325a2.085,2.085,0,0,1-2.083-2.083V24.251L40.154,36.423h0l16.076,9.357a.731.731,0,0,0,.735-1.263L42.437,36.061,55.3,28.572a.731.731,0,1,0-.735-1.263L41.081,35.16a.191.191,0,0,1-.191,0l-1.418-.826h0l-16.134-9.39V3.478a2.019,2.019,0,0,1,2.017-2.017H56.8A2.019,2.019,0,0,1,58.82,3.478V24.835l-1.667.97a.731.731,0,1,0,.735,1.263L59.9,25.9l.008,0,2.823-1.643Z" transform="translate(-17.781 0)"/><path class="a" d="M198.7,46.587h8.487A1.588,1.588,0,0,0,208.774,45V39.458a1.588,1.588,0,0,0-1.586-1.586h-1.816v-.78a1.72,1.72,0,0,0-1.718-1.718h-1.42a1.72,1.72,0,0,0-1.718,1.718v.78H198.7a1.588,1.588,0,0,0-1.586,1.586V45A1.588,1.588,0,0,0,198.7,46.587Zm3.277-9.495a.257.257,0,0,1,.257-.257h1.42a.257.257,0,0,1,.257.257v.78h-1.934Zm-3.4,2.366a.125.125,0,0,1,.125-.125h8.487a.125.125,0,0,1,.125.125V45a.125.125,0,0,1-.125.125H198.7a.125.125,0,0,1-.125-.125Z" transform="translate(-179.647 -31.928)"/></g></svg>