<svg xmlns="http://www.w3.org/2000/svg" width="122.94" height="112.139" viewBox="0 0 122.94 112.139">
  <g id="empty-cart" transform="translate(-8 -18.542)">
    <circle id="Ellipse_276" data-name="Ellipse 276" cx="11.239" cy="11.239" r="11.239" transform="translate(68.787 107.178)" fill="#585555"/>
    <path id="Path_7952" data-name="Path 7952" d="M142.577,213.82a6.335,6.335,0,1,1,6.334-6.335A6.342,6.342,0,0,1,142.577,213.82Z" transform="translate(-62.55 -89.067)"/>
    <path id="Path_7953" data-name="Path 7953" d="M136.932,214.1a12.264,12.264,0,1,1,12.263-12.264A12.278,12.278,0,0,1,136.932,214.1Zm0-22.478a10.215,10.215,0,1,0,10.214,10.215A10.226,10.226,0,0,0,136.932,191.625Z" transform="translate(-56.905 -83.422)" fill="#585555"/>
    <circle id="Ellipse_277" data-name="Ellipse 277" cx="11.239" cy="11.239" r="11.239" transform="translate(21.418 107.178)" fill="#585555"/>
    <path id="Path_7954" data-name="Path 7954" d="M50.1,213.82a6.335,6.335,0,1,1,6.334-6.335A6.342,6.342,0,0,1,50.1,213.82Z" transform="translate(-17.447 -89.067)"/>
    <path id="Path_7955" data-name="Path 7955" d="M44.459,214.1A12.264,12.264,0,1,1,56.723,201.84,12.277,12.277,0,0,1,44.459,214.1Zm0-22.478A10.215,10.215,0,1,0,54.674,201.84,10.226,10.226,0,0,0,44.459,191.625Z" transform="translate(-11.802 -83.422)" fill="#585555"/>
    <path id="Path_7956" data-name="Path 7956" d="M53.671,191.576v8.419a2.754,2.754,0,0,1-2.754,2.754h-.791a2.754,2.754,0,0,1-2.6-1.855l-3.215-9.317h9.363Z" transform="translate(-17.709 -84.398)" fill="#ffd333"/>
    <path id="Path_7957" data-name="Path 7957" d="M146.144,191.576v8.419a2.754,2.754,0,0,1-2.754,2.754H142.6a2.754,2.754,0,0,1-2.6-1.855l-3.215-9.317h9.363Z" transform="translate(-62.813 -84.398)" fill="#ffd333"/>
    <path id="Path_7958" data-name="Path 7958" d="M49.942,202.8h-.791a3.78,3.78,0,0,1-3.572-2.546l-3.215-9.317a1.024,1.024,0,0,1,.968-1.358H52.7a1.025,1.025,0,0,1,1.024,1.024v8.419A3.783,3.783,0,0,1,49.942,202.8ZM44.77,191.625l2.746,7.958a1.731,1.731,0,0,0,1.635,1.165h.791a1.731,1.731,0,0,0,1.729-1.729v-7.394Z" transform="translate(-16.734 -83.422)" fill="#070707"/>
    <path id="Path_7959" data-name="Path 7959" d="M142.415,202.8h-.791a3.781,3.781,0,0,1-3.572-2.546l-3.215-9.317a1.024,1.024,0,0,1,.968-1.358h9.364a1.025,1.025,0,0,1,1.025,1.025v8.419A3.782,3.782,0,0,1,142.415,202.8Zm-5.172-11.173,2.746,7.958a1.73,1.73,0,0,0,1.635,1.165h.791a1.731,1.731,0,0,0,1.729-1.729v-7.394Z" transform="translate(-61.838 -83.423)" fill="#0d0d0d"/>
    <path id="Path_7960" data-name="Path 7960" d="M219.809,31.41h-20.14a2.415,2.415,0,0,1-2.415-2.415V22.957a2.415,2.415,0,0,1,2.415-2.415h20.14a2.415,2.415,0,0,1,2.415,2.415V29A2.415,2.415,0,0,1,219.809,31.41Z" transform="translate(-92.309 -0.976)" fill="#585555"/>
    <path id="Path_7961" data-name="Path 7961" d="M218.833,31.459h-20.14a3.443,3.443,0,0,1-3.44-3.44V21.982a3.443,3.443,0,0,1,3.44-3.44h20.14a3.443,3.443,0,0,1,3.44,3.44V28.02A3.443,3.443,0,0,1,218.833,31.459Zm-20.14-10.868a1.392,1.392,0,0,0-1.391,1.391V28.02a1.392,1.392,0,0,0,1.391,1.391h20.14a1.392,1.392,0,0,0,1.391-1.391V21.982a1.392,1.392,0,0,0-1.391-1.391Z" transform="translate(-91.334)" fill="#020202"/>
    <path id="Path_7962" data-name="Path 7962" d="M176.861,33.608a2.586,2.586,0,0,1,2.461-2.314h4.724V25.257h-4.724a8.644,8.644,0,0,0-8.442,7.524l-.7,5.095h2.538A3.019,3.019,0,0,1,175.7,41.3Z" transform="translate(-79.101 -3.275)" fill="#ffd333"/>
    <path id="Path_7963" data-name="Path 7963" d="M174.733,41.347a1,1,0,0,1-.145-.011,1.024,1.024,0,0,1-.871-1.151,1.995,1.995,0,0,0-1.976-2.261H169.2a1.024,1.024,0,0,1-1.015-1.165l.7-5.095a9.672,9.672,0,0,1,9.457-8.409h4.724a1.025,1.025,0,0,1,1.024,1.024v6.038a1.025,1.025,0,0,1-1.024,1.024h-4.724a1.561,1.561,0,0,0-1.446,1.429l0,.012-1.155,7.69A1.025,1.025,0,0,1,174.733,41.347Zm-4.356-5.471h1.363a4.044,4.044,0,0,1,2.494.861l.639-4.251a3.612,3.612,0,0,1,3.475-3.192h3.7V25.305h-3.7a7.616,7.616,0,0,0-7.428,6.64Zm5.51-3.244h.005Z" transform="translate(-78.127 -2.299)"/>
    <path id="Path_7964" data-name="Path 7964" d="M96.861,50.925a3.018,3.018,0,0,0-2.272-1.032H15.222a5.222,5.222,0,0,0-5.176,5.919l6.126,45.5a7.45,7.45,0,0,0,7.359,6.435H83.759a7.45,7.45,0,0,0,7.358-6.434l6.463-48a3.017,3.017,0,0,0-.719-2.391ZM16.155,55.93h11.67L29.563,75.8H18.83Zm7.378,45.779a1.392,1.392,0,0,1-1.375-1.2L19.644,81.839H30.092l1.739,19.871Zm27.253,0H37.891L36.153,81.839H50.785Zm0-25.908H35.625L33.886,55.93h16.9Zm18.931,25.908H56.823V81.839H71.454ZM71.983,75.8H56.823V55.93h16.9Zm13.151,24.706a1.392,1.392,0,0,1-1.375,1.2H75.778l1.738-19.871H87.648ZM88.461,75.8H78.044L79.783,55.93H91.136Z" transform="translate(-0.976 -15.292)" fill="#ffd333"/>
    <path id="Path_7965" data-name="Path 7965" d="M93.862,157.669a4.353,4.353,0,0,1,0,8.685H26.022a3.019,3.019,0,0,0,0,6.037H93.862a10.248,10.248,0,0,0,10.088-10.38,10.374,10.374,0,0,0-6.706-9.768,7.449,7.449,0,0,1-7.142,5.425Z" transform="translate(-7.318 -65.213)" fill="#ffd333"/>
    <path id="Path_7966" data-name="Path 7966" d="M82.783,107.8H22.556a8.478,8.478,0,0,1-8.374-7.323l-6.126-45.5a6.246,6.246,0,0,1,6.191-7.08H93.613a4.044,4.044,0,0,1,4.007,4.583l-6.463,48a8.476,8.476,0,0,1-8.373,7.322ZM14.247,49.942a4.2,4.2,0,0,0-4.16,4.758l6.126,45.5a6.422,6.422,0,0,0,6.344,5.547H82.784a6.422,6.422,0,0,0,6.343-5.547l6.463-48a1.994,1.994,0,0,0-.475-1.578h0a2,2,0,0,0-1.5-.682H14.247Zm68.537,51.816H74.8a1.025,1.025,0,0,1-1.021-1.114L75.52,80.774a1.024,1.024,0,0,1,1.02-.935H86.672A1.025,1.025,0,0,1,87.687,81L85.174,99.668a2.421,2.421,0,0,1-2.39,2.09ZM75.92,99.709h6.864a.369.369,0,0,0,.36-.315L85.5,81.887H77.479Zm8.238-.178h.005Zm-15.418,2.227H55.847a1.025,1.025,0,0,1-1.025-1.024V80.863a1.025,1.025,0,0,1,1.025-1.024H70.479A1.025,1.025,0,0,1,71.5,80.952l-1.739,19.871a1.025,1.025,0,0,1-1.021.935ZM56.871,99.709H67.8L69.36,81.887H56.871Zm-7.062,2.049H36.916a1.024,1.024,0,0,1-1.02-.935L34.157,80.952a1.025,1.025,0,0,1,1.021-1.114H49.81a1.025,1.025,0,0,1,1.024,1.025v19.871A1.025,1.025,0,0,1,49.81,101.758ZM37.854,99.709H48.785V81.887H36.295Zm-7,2.049h-8.3a2.421,2.421,0,0,1-2.391-2.09L17.652,81a1.025,1.025,0,0,1,1.015-1.161H29.116a1.024,1.024,0,0,1,1.02.935l1.739,19.871a1.025,1.025,0,0,1-1.02,1.114ZM19.839,81.887,22.2,99.394a.369.369,0,0,0,.36.315h7.18L28.177,81.887ZM87.485,75.85H77.068a1.025,1.025,0,0,1-1.021-1.114l1.739-19.871a1.024,1.024,0,0,1,1.02-.935H90.16a1.024,1.024,0,0,1,1.015,1.161L88.5,74.962a1.024,1.024,0,0,1-1.015.888Zm-9.3-2.049h8.4l2.4-17.822H79.745Zm-7.18,2.049H55.847a1.025,1.025,0,0,1-1.024-1.024V54.954a1.025,1.025,0,0,1,1.024-1.024h16.9a1.025,1.025,0,0,1,1.021,1.114L72.028,74.915a1.025,1.025,0,0,1-1.021.935ZM56.871,73.8h13.2l1.559-17.822H56.871ZM49.81,75.85H34.649a1.024,1.024,0,0,1-1.02-.935L31.89,55.043A1.025,1.025,0,0,1,32.91,53.93h16.9a1.025,1.025,0,0,1,1.024,1.024V74.826A1.025,1.025,0,0,1,49.81,75.85ZM35.587,73.8h13.2V55.979H34.028Zm-7,2.049H17.854a1.025,1.025,0,0,1-1.015-.888L14.164,55.091a1.025,1.025,0,0,1,1.015-1.161h11.67a1.024,1.024,0,0,1,1.02.935l1.739,19.871a1.025,1.025,0,0,1-1.02,1.114ZM18.75,73.8h8.719L25.91,55.979h-9.56Z" transform="translate(0 -14.316)"/>
    <path id="Path_7967" data-name="Path 7967" d="M92.887,172.441H25.046a4.043,4.043,0,1,1,0-8.086H92.887a3.333,3.333,0,0,0,0-6.637h-3.76a1.024,1.024,0,1,1,0-2.049,6.424,6.424,0,0,0,6.156-4.677,1.025,1.025,0,0,1,1.34-.684A11.42,11.42,0,0,1,104,161.036a11.274,11.274,0,0,1-11.112,11.4ZM25.046,166.4a1.994,1.994,0,0,0,0,3.988H92.887a9.223,9.223,0,0,0,9.063-9.356,9.4,9.4,0,0,0-5.088-8.394,8.488,8.488,0,0,1-2.516,3.253,5.347,5.347,0,0,1,3.614,5.141,5.233,5.233,0,0,1-5.074,5.367H25.046Z" transform="translate(-6.342 -64.238)" fill="#070707"/>
    <circle id="Ellipse_278" data-name="Ellipse 278" cx="20.021" cy="20.021" r="20.021" transform="translate(75.809 43.544)" fill="#f5481f"/>
    <path id="Path_7968" data-name="Path 7968" d="M165.275,107.148a14.9,14.9,0,1,1,14.9-14.9A14.916,14.916,0,0,1,165.275,107.148Z" transform="translate(-69.444 -28.684)" fill="#ffea92"/>
    <path id="Path_7969" data-name="Path 7969" d="M159.422,107.442A21.046,21.046,0,1,1,180.467,86.4,21.07,21.07,0,0,1,159.422,107.442Zm0-40.042a19,19,0,1,0,19,19A19.018,19.018,0,0,0,159.422,67.4Z" transform="translate(-63.591 -22.831)" fill="#585555"/>
    <path id="Path_7970" data-name="Path 7970" d="M178.907,106.527H161.3a1.024,1.024,0,0,1-1.025-1.024v-4.29a1.024,1.024,0,0,1,1.025-1.024h17.609a1.024,1.024,0,0,1,1.025,1.024v4.29A1.025,1.025,0,0,1,178.907,106.527Z" transform="translate(-74.272 -39.823)" fill="#fa2828"/>
  </g>
</svg>
