<svg xmlns="http://www.w3.org/2000/svg" width="48.046" height="44.973" viewBox="0 0 48.046 44.973"><defs><style>.a{fill:#ffd333;}</style></defs><path class="a" d="M26.637,19.573A21.4,21.4,0,0,0,9.117,28.7a10.472,10.472,0,0,1,2.341,2.164,18.269,18.269,0,0,1,12.981-8.012l2.2,3.719,2.2-3.719A18.3,18.3,0,0,1,44.767,38.783l-3.72,2.2,3.72,2.2A18.276,18.276,0,0,1,36.394,56.4a5.558,5.558,0,0,1,.479,2.019,5.349,5.349,0,0,1-.136,1.436,21.405,21.405,0,0,0-10.1-40.28ZM32.1,54.832c-4.935-3.966-6.315-2.017-8.555.222-1.563,1.564-5.52-1.7-8.936-5.118S7.928,42.564,9.492,41c2.239-2.239,4.189-3.62.221-8.554S3.1,31.3.933,33.469c-2.5,2.5-.132,11.833,9.089,21.055s18.551,11.592,21.054,9.089C33.245,61.444,37.036,58.8,32.1,54.832Zm-15.031-10.5c0-4.387,5.136-5.169,5.136-6.88a1.174,1.174,0,0,0-1.28-1.179c-1.13,0-1.761,1.263-1.761,1.263L17,36.09a4.583,4.583,0,0,1,4.188-2.559c1.944,0,4.055,1.114,4.055,3.64,0,3.706-4.786,4.421-4.87,5.95h5.053v2.493H17.2A7.26,7.26,0,0,1,17.069,44.333Zm9.575-3.357,4.587-7.247h3.556v6.6H36.2v2.409H34.788v2.876H31.913V42.737H26.644V40.976Zm5.268-.648V37.669a10.611,10.611,0,0,1,.1-1.33h-.033a6.307,6.307,0,0,1-.582,1.23L29.6,40.294v.033Z" transform="translate(0 -19.573)"/></svg>