<svg xmlns="http://www.w3.org/2000/svg" width="43.345" height="50.901" viewBox="0 0 43.345 50.901"><defs><style>.a{fill:#ffd333;}</style></defs><path class="a" d="M43.295,13.81v-.04c-.022-.489-.037-1.006-.046-1.582A5.4,5.4,0,0,0,38.168,6.9,20.934,20.934,0,0,1,23.92.9L23.887.867a3.258,3.258,0,0,0-4.427,0L19.427.9A20.936,20.936,0,0,1,5.179,6.9,5.394,5.394,0,0,0,.1,12.189C.091,12.76.076,13.278.053,13.77l0,.092C-.063,19.83-.2,27.257,2.281,34A25.633,25.633,0,0,0,8.43,43.577a32.169,32.169,0,0,0,12.034,7.118,3.727,3.727,0,0,0,.493.134,3.643,3.643,0,0,0,1.432,0,3.739,3.739,0,0,0,.5-.135,32.19,32.19,0,0,0,12.021-7.122,25.668,25.668,0,0,0,6.149-9.581C43.549,27.23,43.408,19.789,43.295,13.81ZM38.253,32.958c-2.621,7.105-7.97,11.985-16.354,14.917a.75.75,0,0,1-.095.026.67.67,0,0,1-.262,0,.744.744,0,0,1-.094-.025C13.055,44.948,7.7,40.071,5.083,32.966c-2.29-6.214-2.16-13.032-2.046-19.046v-.033c.023-.517.039-1.058.047-1.653a2.4,2.4,0,0,1,2.26-2.347A26.205,26.205,0,0,0,14.24,7.929a23.271,23.271,0,0,0,7.249-4.87.275.275,0,0,1,.37,0,23.279,23.279,0,0,0,7.248,4.87A26.207,26.207,0,0,0,38,9.886a2.4,2.4,0,0,1,2.259,2.347c.009.6.024,1.139.048,1.653C40.423,19.908,40.549,26.731,38.253,32.958Zm0,0" transform="translate(0 0.001)"/><path class="a" d="M103.084,128.41A12.685,12.685,0,1,0,115.769,141.1,12.7,12.7,0,0,0,103.084,128.41Zm0,22.384a9.7,9.7,0,1,1,9.7-9.7A9.709,9.709,0,0,1,103.084,150.794Zm0,0" transform="translate(-81.411 -115.644)"/><path class="a" d="M163.713,212.429l-5.892,5.892-1.6-1.6a1.493,1.493,0,0,0-2.112,2.112l2.656,2.656a1.493,1.493,0,0,0,2.112,0l6.948-6.948a1.493,1.493,0,0,0-2.112-2.112Zm0,0" transform="translate(-138.395 -190.916)"/></svg>