<svg xmlns="http://www.w3.org/2000/svg" width="26.497" height="26.497" viewBox="0 0 26.497 26.497"><defs><style>.a{fill:#646464;stroke:#646464;}</style></defs><g transform="translate(0.5 0.5)"><g transform="translate(0 0)"><g transform="translate(0 0)"><path class="a" d="M15.914,26.5h-4.33a.406.406,0,0,1-.4-.4v-2.1a10.353,10.353,0,0,1-2.853-1.174L6.848,24.291a.391.391,0,0,1-.567,0l-3.1-3.056a.391.391,0,0,1,0-.567l1.477-1.477a10.353,10.353,0,0,1-1.174-2.853H1.4a.406.406,0,0,1-.4-.4V11.583a.406.406,0,0,1,.4-.4h2.1A10.353,10.353,0,0,1,4.683,8.325L3.206,6.848a.391.391,0,0,1,0-.567l3.056-3.1a.391.391,0,0,1,.567,0L8.3,4.663a10.353,10.353,0,0,1,2.853-1.174V1.4a.406.406,0,0,1,.4-.4h4.351a.406.406,0,0,1,.4.4V3.529A10.353,10.353,0,0,1,19.171,4.7l1.477-1.5a.4.4,0,0,1,.283-.121h0a.4.4,0,0,1,.283.121l3.1,3.056a.391.391,0,0,1,0,.567L22.834,8.3a10.353,10.353,0,0,1,1.174,2.853h2.084a.406.406,0,0,1,.4.4v4.351a.406.406,0,0,1-.4.4h-2.1a10.353,10.353,0,0,1-1.174,2.853l1.477,1.477a.391.391,0,0,1,0,.567l-3.056,3.1a.4.4,0,0,1-.283.121h0a.4.4,0,0,1-.283-.121l-1.477-1.477a10.353,10.353,0,0,1-2.853,1.174v2.084A.438.438,0,0,1,15.914,26.5Zm-3.926-.809h3.541V23.664a.431.431,0,0,1,.324-.4,9.526,9.526,0,0,0,3.177-1.315.4.4,0,0,1,.506.061l1.416,1.416,2.489-2.489-1.416-1.416a.4.4,0,0,1-.061-.506,9.526,9.526,0,0,0,1.315-3.177.413.413,0,0,1,.4-.324h2.024V11.988H23.684a.431.431,0,0,1-.4-.324,9.526,9.526,0,0,0-1.315-3.177.4.4,0,0,1,.061-.506l1.416-1.416L20.952,4.056,19.536,5.492a.4.4,0,0,1-.506.061,10.074,10.074,0,0,0-3.2-1.315.413.413,0,0,1-.324-.4V1.809H11.988V3.833a.431.431,0,0,1-.324.4A9.526,9.526,0,0,0,8.487,5.553a.4.4,0,0,1-.506-.061L6.565,4.076,4.056,6.545,5.472,7.961a.4.4,0,0,1,.061.506,9.526,9.526,0,0,0-1.315,3.177.413.413,0,0,1-.4.324h-2v3.541H3.833a.431.431,0,0,1,.4.324A9.526,9.526,0,0,0,5.553,19.01a.4.4,0,0,1-.061.506L4.076,20.932l2.489,2.489L7.981,22a.4.4,0,0,1,.506-.061,9.526,9.526,0,0,0,3.177,1.315.413.413,0,0,1,.324.4Z" transform="translate(-1 -1)"/><path class="a" d="M28.1,34.892a6.8,6.8,0,1,1,6.8-6.8A6.8,6.8,0,0,1,28.1,34.892Zm0-12.955A6.159,6.159,0,1,0,34.255,28.1,6.164,6.164,0,0,0,28.1,21.937Z" transform="translate(-15.306 -15.363)"/></g></g><path class="a" d="M20.244,26.133a.316.316,0,0,0,.223-.092l4.858-4.858a.315.315,0,0,0,0-.446L24.2,19.615a.315.315,0,0,0-.446,0l-3.513,3.513-1-1a.315.315,0,0,0-.446,0l-1.122,1.122a.315.315,0,0,0,0,.446l2.346,2.346A.316.316,0,0,0,20.244,26.133ZM19.02,22.8l1,1a.315.315,0,0,0,.446,0l3.513-3.513.676.676-4.412,4.412-1.9-1.9Z" transform="translate(-8.75 -10.115)"/></g></svg>