<svg xmlns="http://www.w3.org/2000/svg" width="117.572" height="117.572" viewBox="0 0 117.572 117.572"><defs><style>.a{fill:#ffb300;stroke:#ffb300;}</style></defs><g transform="translate(0.5 0.5)"><g transform="translate(0 0)"><g transform="translate(0 0)"><path class="a" d="M69.186,117.572h-19.8a1.856,1.856,0,0,1-1.85-1.85V106.1a47.333,47.333,0,0,1-13.045-5.366l-6.754,6.754a1.789,1.789,0,0,1-2.59,0L10.992,93.518a1.789,1.789,0,0,1,0-2.59l6.754-6.754A47.333,47.333,0,0,1,12.38,71.128H2.85A1.856,1.856,0,0,1,1,69.278V49.387a1.856,1.856,0,0,1,1.85-1.85h9.622a47.333,47.333,0,0,1,5.366-13.045l-6.754-6.754a1.789,1.789,0,0,1,0-2.59l13.97-14.155a1.789,1.789,0,0,1,2.59,0L34.4,17.746A47.333,47.333,0,0,1,47.444,12.38V2.85A1.856,1.856,0,0,1,49.294,1H69.186a1.856,1.856,0,0,1,1.85,1.85v9.714a47.333,47.333,0,0,1,13.045,5.366l6.754-6.846a1.827,1.827,0,0,1,1.3-.555h0a1.827,1.827,0,0,1,1.3.555l14.155,13.97a1.789,1.789,0,0,1,0,2.59L100.827,34.4a47.333,47.333,0,0,1,5.366,13.045h9.529a1.856,1.856,0,0,1,1.85,1.85V69.186a1.856,1.856,0,0,1-1.85,1.85H106.1a47.333,47.333,0,0,1-5.366,13.045l6.754,6.754a1.789,1.789,0,0,1,0,2.59L93.518,107.58a1.827,1.827,0,0,1-1.3.555h0a1.827,1.827,0,0,1-1.3-.555l-6.754-6.754a47.333,47.333,0,0,1-13.045,5.366v9.529A2,2,0,0,1,69.186,117.572Zm-17.948-3.7H67.428V104.62a1.972,1.972,0,0,1,1.48-1.85,43.552,43.552,0,0,0,14.525-6.014,1.833,1.833,0,0,1,2.313.278l6.476,6.476L103.6,92.13l-6.476-6.476a1.833,1.833,0,0,1-.278-2.313,43.552,43.552,0,0,0,6.014-14.525,1.89,1.89,0,0,1,1.85-1.48h9.252v-16.1h-9.252a1.972,1.972,0,0,1-1.85-1.48,43.552,43.552,0,0,0-6.014-14.525,1.833,1.833,0,0,1,.278-2.313l6.476-6.476L92.222,14.97l-6.476,6.569a1.833,1.833,0,0,1-2.313.278A46.058,46.058,0,0,0,68.815,15.8a1.89,1.89,0,0,1-1.48-1.85V4.7h-16.1v9.252a1.972,1.972,0,0,1-1.48,1.85,43.552,43.552,0,0,0-14.525,6.014,1.833,1.833,0,0,1-2.313-.278l-6.476-6.476L14.97,26.35l6.476,6.476a1.833,1.833,0,0,1,.278,2.313A43.551,43.551,0,0,0,15.71,49.664a1.89,1.89,0,0,1-1.85,1.48H4.7V67.335h9.252a1.972,1.972,0,0,1,1.85,1.48,43.551,43.551,0,0,0,6.014,14.525,1.833,1.833,0,0,1-.278,2.313L15.063,92.13l11.38,11.38,6.476-6.476a1.833,1.833,0,0,1,2.313-.278,43.552,43.552,0,0,0,14.525,6.014,1.891,1.891,0,0,1,1.48,1.85Z" transform="translate(-1 -1)"/><path class="a" d="M52.372,83.444A31.072,31.072,0,1,1,83.444,52.372,31.1,31.1,0,0,1,52.372,83.444Zm0-59.233A28.161,28.161,0,1,0,80.533,52.372,28.183,28.183,0,0,0,52.372,24.211Z" transform="translate(6.105 5.844)"/></g></g><path class="a" d="M29.75,49.747a1.443,1.443,0,0,0,1.02-.423L52.98,27.113a1.442,1.442,0,0,0,0-2.04l-5.129-5.129a1.442,1.442,0,0,0-2.04,0L29.75,36.006l-4.576-4.575a1.442,1.442,0,0,0-2.04,0l-5.129,5.129a1.442,1.442,0,0,0,0,2.04L28.73,49.325A1.443,1.443,0,0,0,29.75,49.747Zm-5.6-15.257,4.576,4.575a1.442,1.442,0,0,0,2.04,0L46.832,23l3.089,3.089L29.75,46.265l-8.685-8.686Z" transform="translate(22.804 23.488)"/></g></svg>